<?xml version="1.0" encoding="iso-8859-1"?>
<!-- Generator: Adobe Illustrator 19.0.0, SVG Export Plug-In . SVG Version: 6.00 Build 0)  -->
<svg xmlns="http://www.w3.org/2000/svg" xmlns:xlink="http://www.w3.org/1999/xlink" version="1.1" id="Capa_1" x="0px" y="0px" viewBox="0 0 336 336" style="enable-background:new 0 0 336 336;" xml:space="preserve" width="512px" height="512px">
<g>
	<g>
		<path d="M255.2,106.8c-4-4-10.4-3.6-14.4,0.4l-91.2,100.4l-55.6-44c-4.4-3.6-10.8-2.8-14.4,1.6c-3.6,4.4-2.8,10.8,1.6,14.4    l63.2,50.4c4.4,3.2,10.4,2.8,14-1.2L256,121.2C260,117.2,259.6,110.4,255.2,106.8z" fill="#FFFFFF"/>
	</g>
</g>
<g>
	<g>
		<path d="M286.8,49.2C256.4,18.8,214.4,0,168,0C121.6,0,79.6,18.8,49.2,49.2C18.8,79.6,0,121.6,0,168c0,46.4,18.8,88.4,49.2,118.8    S121.6,336,168,336c46.4,0,88.4-18.8,118.8-49.2C317.2,256.4,336,214.4,336,168C336,121.6,317.2,79.6,286.8,49.2z M272.4,272.4    c-26.8,26.8-63.6,43.2-104.4,43.2s-77.6-16.4-104.4-43.2C37.2,245.6,20.4,208.8,20.4,168S36.8,90.4,63.6,63.6    C90.4,36.8,127.2,20.4,168,20.4s77.6,16.4,104.4,43.2c26.8,26.8,43.2,63.6,43.2,104.4S298.8,245.6,272.4,272.4z" fill="#FFFFFF"/>
	</g>
</g>
<g>
</g>
<g>
</g>
<g>
</g>
<g>
</g>
<g>
</g>
<g>
</g>
<g>
</g>
<g>
</g>
<g>
</g>
<g>
</g>
<g>
</g>
<g>
</g>
<g>
</g>
<g>
</g>
<g>
</g>
</svg>
